<svg xmlns="http://www.w3.org/2000/svg" viewBox="0 0 107.26 25.21"><defs><style>.cls-1{fill:#009245;}</style></defs><title>资源 1</title><g id="图层_2" data-name="图层 2"><g id="图层_1-2" data-name="图层 1"><path class="cls-1" d="M14.79,4.07,0,12.61l14.79,8.54,7.05,4.06V0ZM21.37,24.4l-6.58-3.79v-16L21.37.81Zm-7-19.52V20.33L.94,12.61Zm26,7.46L27.43,4.88h0L27,4.61v16l.47-.27,12.91-7.46h0l.46-.27Zm-4.86-2.26-8.06,4.65V5.43Zm-8.06,9.71V15.28L36,10.35l3.92,2.26Z"/><path class="cls-1" d="M47.43,17.84c1-.39,1.34-1,1.34-3.54v-4c0-.89-.07-1.08-1.11-1.14V9.05h2.72v.16c-.93.06-1,.25-1,1.14v4.39c0,2.27-.64,2.76-1.87,3.28Z"/><path class="cls-1" d="M51.08,16c1-.05,1.07-.24,1.07-1.14V10.35c0-.91,0-1.08-1-1.13V9.05h2.69c.72,0,2.48.09,2.48,2a2.32,2.32,0,0,1-2.65,2.22L52.76,13v1.89c0,.88.08,1,1.24,1.11v.16H51.08Zm1.68-3.25a2.29,2.29,0,0,0,1,.17,1.68,1.68,0,0,0,1.84-1.84c0-1.23-.72-1.8-2.12-1.8a3.75,3.75,0,0,0-.57,0c-.08,0-.12,0-.12.29Z"/><path class="cls-1" d="M61.81,16c.64-.09.88-.16.88-.43a11.06,11.06,0,0,0-.76-2.23H59.31a11.24,11.24,0,0,0-.68,2.1c0,.39.3.46.94.56v.16H57V16c.8-.16.95-.26,1.37-1.28l2.46-5.78L61,8.88l.76,2.1c.52,1.42,1,2.84,1.46,3.93.34.84.43,1,1.23,1.09v.16h-2.6Zm-1.1-6.06c-.46,1-.9,2.09-1.26,3h2.38l-1.1-3Z"/><path class="cls-1" d="M65,16c1-.05,1.1-.24,1.1-1.14V10.31c0-.89-.09-1-1-1.09V9.05h2.68c1.12,0,2.35.34,2.35,1.8a2,2,0,0,1-1.39,1.93,15.87,15.87,0,0,0,1,1.55C70.24,15,71,16,71.61,16.11l0,.15c-1,0-1.58-.06-3.3-2.86C68,13,67.66,13,66.7,13v1.88c0,.9.09,1.09,1.06,1.14v.16H65Zm2.41-3.25a2.06,2.06,0,0,0,1.38-.34A1.64,1.64,0,0,0,69.36,11c0-1.22-.78-1.74-2-1.74-.31,0-.5,0-.6,0s-.1,0-.1.25v3.2Z"/><path class="cls-1" d="M73.64,16c1.13-.06,1.21-.25,1.21-1.11V9.32h-.7c-1.49,0-1.63.25-2,1.45H72c.07-.67.11-1.35.13-2h.18a.51.51,0,0,0,.25.24,1.2,1.2,0,0,0,.36,0h4.58A.53.53,0,0,0,78,8.78h.19a17.41,17.41,0,0,0,.11,1.93l-.2,0c-.27-1.29-.7-1.45-1.67-1.45h-1v5.57c0,.86.08,1,1.26,1.11v.16H73.64Z"/><path class="cls-1" d="M79,16c1-.05,1.07-.24,1.07-1.14V10.35c0-.89-.09-1.08-1.07-1.14V9.05h2.74v.16c-1,.06-1.07.25-1.07,1.14v4.51c0,.9.1,1.09,1.07,1.14v.16H79Z"/><path class="cls-1" d="M89.83,14.09A18.79,18.79,0,0,1,89.24,16a13.55,13.55,0,0,1-2.28.32c-3,0-4.24-1.91-4.23-3.62,0-2.27,1.9-3.83,4.47-3.83a7.75,7.75,0,0,1,2.14.32c.1.57.15,1.11.22,1.76l-.19,0c-.32-1.31-1.09-1.82-2.57-1.82a3,3,0,0,0-3.26,3.25c0,2.21,1.32,3.64,3.33,3.64a2.82,2.82,0,0,0,2.77-2Z"/><path class="cls-1" d="M95.89,14.39c-.08.37-.33,1.27-.41,1.77H90.54V16c1-.05,1-.24,1-1.19V10.35c0-.89-.08-1.08-1.09-1.14V9.05h2.81v.16c-1,.06-1.13.25-1.13,1.14v4.3c0,1.2.27,1.24,1.43,1.24a2.16,2.16,0,0,0,1.49-.41,4.86,4.86,0,0,0,.59-1.09Z"/><path class="cls-1" d="M96.41,16c1.07-.06,1.15-.25,1.15-1.12V10.43c0-1-.09-1.17-1-1.22V9.05h4.94c0,.4.06,1.07.1,1.74l-.19,0c-.24-1.16-.45-1.5-1.83-1.5H98.48c-.31,0-.32,0-.32.32V12.3h1.33c.89,0,1.11-.11,1.28-.88H101v2.12h-.19c-.18-.88-.42-.92-1.28-.92H98.16v2.21c0,1.07.46,1.07,1.41,1.07a2.25,2.25,0,0,0,1.73-.43,3.66,3.66,0,0,0,.64-1.13h.19c-.1.42-.32,1.43-.41,1.82H96.41Z"/><path class="cls-1" d="M106.73,10.7c-.2-.66-.47-1.56-1.57-1.56a1.16,1.16,0,0,0-1.23,1.27c0,1,.7,1.33,1.43,1.71.5.25,1.9.74,1.9,2.15a2.12,2.12,0,0,1-2.34,2.06,4.7,4.7,0,0,1-1.15-.18,1.67,1.67,0,0,1-.48-.22,13.35,13.35,0,0,1-.28-1.79h.19c.18.61.67,1.89,2,1.89a1.29,1.29,0,0,0,1.41-1.47c0-1.15-.93-1.53-1.53-1.87-.1-.06-1.77-.6-1.77-2a1.92,1.92,0,0,1,2.11-1.83,4,4,0,0,1,1.33.24c0,.39.1.81.18,1.58Z"/></g></g></svg>